<svg width="213" height="127" viewBox="0 0 213 127" fill="none" xmlns="http://www.w3.org/2000/svg">
<path d="M175.5 61C122 38.5 123 30.5 86 40C49 49.5 13.5 38.5 23.5 56C29.509 66.5158 27.9353 73.0596 39.5 75.3061M57.5 72.6556C67.1127 69.0317 77.0242 65.1094 86 61C127.5 42 157 56 175.5 74C194 92 157 87 117 95C85 101.4 73.6667 105 72 106C55.8333 101.667 25.5 86.6 33.5 61C43.4999 29 80 56 130 56C169.3 56 158.867 63.4135 121.768 69.5M57.5 72.6556C22.6684 85.7869 -8.24035 95 23.5 95C64 95 106.5 84 141 79C175.5 74 245 77.5 185 61C125 44.5 -5.0918 58.0765 15 69.5C35.0918 80.9235 129.5 111 152.5 95C175.5 79 203 55.4374 170 49.5C137 43.5626 56 59.1799 57.5 72.6556ZM185 95C200.666 74 163.036 69.5 121.768 69.5M121.768 69.5C111.667 71.1572 99.5892 72.716 86 74C60.6573 76.3946 47.1809 76.7982 39.5 75.3061M39.5 75.3061C40 94.4396 36.5 108 106 101.5C175.5 95 187.5 83.5718 192.5 79C197.5 74.4282 210 44.5 175.5 40C141 35.5 32.5 78.1821 45 85.5C57.5 92.8179 115 100.905 130 85.5C145 70.095 15 56.5 15 79C15 97 39.3333 104.5 51.5 106" stroke="black"/>
<path d="M173.258 66.019C127.094 27.504 130.212 18.2099 91.5719 21.3764C52.9313 24.5429 21.2461 3.65974 26.3134 26.6689C29.3583 40.4952 26.07 47.9316 36.7501 53.1446M55.0202 53.9483C65.3687 51.7512 76.0886 49.2648 85.946 46.3503C131.522 32.875 156.55 56.0073 169.775 81.4791C183.001 106.951 148.245 92.8735 107.08 93.5969C74.1473 94.1755 62.1266 95.9661 60.2328 96.7891C45.6222 88.0829 20.0668 63.499 34.7294 34.8127C53.0576 -1.04514 81.4321 39.0855 130.21 50.0737C168.549 58.7103 156.386 65.234 118.563 64.3193M55.0202 53.9483C17.5222 61.9097 -15.0991 66.0737 15.8654 73.0491C55.3752 81.9494 99.7831 78.2078 134.779 79.8434C169.775 81.4791 236.639 100.915 182.526 68.1068C128.413 35.2987 -2.13576 22.855 14.4045 40.8556C30.9448 58.8562 114.988 115.372 141.712 101.398C168.436 87.4253 201.576 65.4472 170.973 51.1342C140.371 36.8211 57.167 37.5928 55.0202 53.9483ZM173.417 108.541C194.327 87.0097 158.822 73.3885 118.563 64.3193M118.563 64.3193C108.265 64.0702 96.0643 63.2697 82.4633 61.8103C57.0986 59.0887 43.8435 56.607 36.7501 53.1446M36.7501 53.1446C32.1121 76.0086 25.0648 91.366 94.6071 98.9095C164.149 106.453 178.918 95.4994 185.02 91.1612C191.123 86.8231 211.335 53.9785 178.884 41.0451C146.433 28.1118 29.1508 55.0265 39.3848 66.4762C49.6187 77.926 103.546 100.18 122.307 85.1561C141.067 70.1323 17.8872 25.3956 11.8595 52.1533C7.03733 73.5595 28.7666 87.8263 40.2339 92.284" stroke="black"/>
</svg>
