<?xml version="1.0" encoding="UTF-8"?>
<svg id="Layer_1" data-name="Layer 1" xmlns="http://www.w3.org/2000/svg" viewBox="0 0 1920 1080">
  <defs>
    <style>
      .cls-1 {
        fill: #a62020;
        stroke-width: 0px;
      }
    </style>
  </defs>
  <rect class="cls-1" x="-58.47" width="119.8" height="119.8"/>
  <rect class="cls-1" x="61.33" y="119.8" width="119.8" height="119.8"/>
  <rect class="cls-1" x="181.13" width="119.8" height="119.8"/>
  <rect class="cls-1" x="300.93" y="119.8" width="119.8" height="119.8"/>
  <rect class="cls-1" x="420.72" y="0" width="119.8" height="119.8"/>
  <rect class="cls-1" x="540.52" y="119.8" width="119.8" height="119.8"/>
  <rect class="cls-1" x="660.32" y="0" width="119.8" height="119.8"/>
  <rect class="cls-1" x="780.12" y="119.8" width="119.8" height="119.8"/>
  <rect class="cls-1" x="899.91" width="119.8" height="119.8"/>
  <rect class="cls-1" x="1019.71" y="119.8" width="119.8" height="119.8"/>
  <rect class="cls-1" x="1139.51" width="119.8" height="119.8"/>
  <rect class="cls-1" x="1259.3" y="119.8" width="119.8" height="119.8"/>
  <rect class="cls-1" x="1379.1" y="0" width="119.8" height="119.8"/>
  <rect class="cls-1" x="1498.9" y="119.8" width="119.8" height="119.8"/>
  <rect class="cls-1" x="1618.7" y="0" width="119.8" height="119.8"/>
  <rect class="cls-1" x="1738.49" y="119.8" width="119.8" height="119.8"/>
  <rect class="cls-1" x="1858.29" y="0" width="119.8" height="119.8"/>
  <rect class="cls-1" x="-58.47" y="239.59" width="119.8" height="119.8"/>
  <rect class="cls-1" x="61.33" y="359.39" width="119.8" height="119.8"/>
  <rect class="cls-1" x="181.13" y="239.59" width="119.8" height="119.8"/>
  <rect class="cls-1" x="300.93" y="359.39" width="119.8" height="119.8"/>
  <rect class="cls-1" x="420.72" y="239.59" width="119.8" height="119.8"/>
  <rect class="cls-1" x="540.52" y="359.39" width="119.8" height="119.8"/>
  <rect class="cls-1" x="660.32" y="239.59" width="119.8" height="119.8"/>
  <rect class="cls-1" x="780.12" y="359.39" width="119.8" height="119.8"/>
  <rect class="cls-1" x="899.91" y="239.59" width="119.8" height="119.8"/>
  <rect class="cls-1" x="1019.71" y="359.39" width="119.8" height="119.8"/>
  <rect class="cls-1" x="1139.51" y="239.59" width="119.8" height="119.8"/>
  <rect class="cls-1" x="1259.3" y="359.39" width="119.8" height="119.8"/>
  <rect class="cls-1" x="1379.1" y="239.59" width="119.8" height="119.8"/>
  <rect class="cls-1" x="1498.9" y="359.39" width="119.8" height="119.8"/>
  <rect class="cls-1" x="1618.7" y="239.59" width="119.8" height="119.8"/>
  <rect class="cls-1" x="1738.49" y="359.39" width="119.8" height="119.8"/>
  <rect class="cls-1" x="1858.29" y="239.59" width="119.8" height="119.8"/>
  <rect class="cls-1" x="-58.47" y="479.19" width="119.8" height="119.8"/>
  <rect class="cls-1" x="61.33" y="598.99" width="119.8" height="119.8"/>
  <rect class="cls-1" x="181.13" y="479.19" width="119.8" height="119.8"/>
  <rect class="cls-1" x="300.93" y="598.99" width="119.8" height="119.8"/>
  <rect class="cls-1" x="420.72" y="479.19" width="119.8" height="119.8"/>
  <rect class="cls-1" x="540.52" y="598.99" width="119.8" height="119.8"/>
  <rect class="cls-1" x="660.32" y="479.19" width="119.8" height="119.8"/>
  <rect class="cls-1" x="780.12" y="598.99" width="119.8" height="119.8"/>
  <rect class="cls-1" x="899.91" y="479.19" width="119.8" height="119.8"/>
  <rect class="cls-1" x="1019.71" y="598.99" width="119.8" height="119.8"/>
  <rect class="cls-1" x="1139.51" y="479.19" width="119.8" height="119.8"/>
  <rect class="cls-1" x="1259.3" y="598.99" width="119.8" height="119.8"/>
  <rect class="cls-1" x="1379.1" y="479.19" width="119.8" height="119.8"/>
  <rect class="cls-1" x="1498.9" y="598.99" width="119.8" height="119.8"/>
  <rect class="cls-1" x="1618.7" y="479.19" width="119.8" height="119.8"/>
  <rect class="cls-1" x="1738.49" y="598.99" width="119.8" height="119.8"/>
  <rect class="cls-1" x="1858.29" y="479.19" width="119.8" height="119.8"/>
  <rect class="cls-1" x="-58.47" y="718.78" width="119.8" height="119.8"/>
  <rect class="cls-1" x="61.33" y="838.58" width="119.8" height="119.8"/>
  <rect class="cls-1" x="181.13" y="718.78" width="119.8" height="119.8"/>
  <rect class="cls-1" x="300.93" y="838.58" width="119.8" height="119.8"/>
  <rect class="cls-1" x="420.72" y="718.78" width="119.8" height="119.8"/>
  <rect class="cls-1" x="540.52" y="838.58" width="119.8" height="119.8"/>
  <rect class="cls-1" x="660.32" y="718.78" width="119.8" height="119.8"/>
  <rect class="cls-1" x="780.12" y="838.58" width="119.8" height="119.8"/>
  <rect class="cls-1" x="899.91" y="718.78" width="119.8" height="119.8"/>
  <rect class="cls-1" x="1019.71" y="838.58" width="119.8" height="119.8"/>
  <rect class="cls-1" x="1139.51" y="718.78" width="119.8" height="119.8"/>
  <rect class="cls-1" x="1259.3" y="838.58" width="119.8" height="119.8"/>
  <rect class="cls-1" x="1379.1" y="718.78" width="119.8" height="119.8"/>
  <rect class="cls-1" x="1498.9" y="838.58" width="119.8" height="119.8"/>
  <rect class="cls-1" x="1618.7" y="718.78" width="119.8" height="119.8"/>
  <rect class="cls-1" x="1738.49" y="838.58" width="119.8" height="119.8"/>
  <rect class="cls-1" x="1858.29" y="718.78" width="119.8" height="119.8"/>
  <rect class="cls-1" x="-58.25" y="958.38" width="119.8" height="119.8"/>
  <rect class="cls-1" x="181.35" y="958.38" width="119.8" height="119.8"/>
  <rect class="cls-1" x="420.94" y="958.38" width="119.8" height="119.8"/>
  <rect class="cls-1" x="660.53" y="958.38" width="119.8" height="119.8"/>
  <rect class="cls-1" x="900.13" y="958.38" width="119.8" height="119.8"/>
  <rect class="cls-1" x="1139.72" y="958.38" width="119.8" height="119.8"/>
  <rect class="cls-1" x="1379.32" y="958.38" width="119.8" height="119.8"/>
  <rect class="cls-1" x="1618.91" y="958.38" width="119.8" height="119.8"/>
  <rect class="cls-1" x="1858.51" y="958.38" width="119.8" height="119.8"/>
</svg>